<mxfile host="Electron" agent="Mozilla/5.0 (Windows NT 10.0; Win64; x64) AppleWebKit/537.36 (KHTML, like Gecko) draw.io/26.0.16 Chrome/132.0.6834.196 Electron/34.2.0 Safari/537.36" version="26.0.16">
  <diagram name="Page-1" id="B41R1KmPhvPjrRYIUg0Q">
    <mxGraphModel dx="993" dy="1131" grid="0" gridSize="10" guides="1" tooltips="1" connect="1" arrows="1" fold="1" page="0" pageScale="1" pageWidth="850" pageHeight="1100" math="0" shadow="0">
      <root>
        <mxCell id="0" />
        <mxCell id="1" parent="0" />
        <mxCell id="-eYlrrSqcaiwDsKNxF3H-1" value="AvailabilityPeriod" style="swimlane;fontStyle=0;childLayout=stackLayout;horizontal=1;startSize=30;horizontalStack=0;resizeParent=1;resizeParentMax=0;resizeLast=0;collapsible=1;marginBottom=0;whiteSpace=wrap;html=1;" vertex="1" parent="1">
          <mxGeometry x="-249" y="-162" width="168" height="240" as="geometry" />
        </mxCell>
        <mxCell id="-eYlrrSqcaiwDsKNxF3H-2" value="- ID: string" style="text;strokeColor=none;fillColor=none;align=left;verticalAlign=middle;spacingLeft=4;spacingRight=4;overflow=hidden;points=[[0,0.5],[1,0.5]];portConstraint=eastwest;rotatable=0;whiteSpace=wrap;html=1;" vertex="1" parent="-eYlrrSqcaiwDsKNxF3H-1">
          <mxGeometry y="30" width="168" height="30" as="geometry" />
        </mxCell>
        <mxCell id="-eYlrrSqcaiwDsKNxF3H-3" value="- startDate: Date" style="text;strokeColor=none;fillColor=none;align=left;verticalAlign=middle;spacingLeft=4;spacingRight=4;overflow=hidden;points=[[0,0.5],[1,0.5]];portConstraint=eastwest;rotatable=0;whiteSpace=wrap;html=1;" vertex="1" parent="-eYlrrSqcaiwDsKNxF3H-1">
          <mxGeometry y="60" width="168" height="30" as="geometry" />
        </mxCell>
        <mxCell id="-eYlrrSqcaiwDsKNxF3H-4" value="- finishDate: Date" style="text;strokeColor=none;fillColor=none;align=left;verticalAlign=middle;spacingLeft=4;spacingRight=4;overflow=hidden;points=[[0,0.5],[1,0.5]];portConstraint=eastwest;rotatable=0;whiteSpace=wrap;html=1;" vertex="1" parent="-eYlrrSqcaiwDsKNxF3H-1">
          <mxGeometry y="90" width="168" height="30" as="geometry" />
        </mxCell>
        <mxCell id="-eYlrrSqcaiwDsKNxF3H-6" value="- price: float" style="text;strokeColor=none;fillColor=none;align=left;verticalAlign=middle;spacingLeft=4;spacingRight=4;overflow=hidden;points=[[0,0.5],[1,0.5]];portConstraint=eastwest;rotatable=0;whiteSpace=wrap;html=1;" vertex="1" parent="-eYlrrSqcaiwDsKNxF3H-1">
          <mxGeometry y="120" width="168" height="30" as="geometry" />
        </mxCell>
        <mxCell id="-eYlrrSqcaiwDsKNxF3H-8" value="- capacity: int&amp;nbsp;" style="text;strokeColor=none;fillColor=none;align=left;verticalAlign=middle;spacingLeft=4;spacingRight=4;overflow=hidden;points=[[0,0.5],[1,0.5]];portConstraint=eastwest;rotatable=0;whiteSpace=wrap;html=1;" vertex="1" parent="-eYlrrSqcaiwDsKNxF3H-1">
          <mxGeometry y="150" width="168" height="30" as="geometry" />
        </mxCell>
        <mxCell id="-eYlrrSqcaiwDsKNxF3H-7" value="- workDays: List&amp;lt;String&amp;gt;" style="text;strokeColor=none;fillColor=none;align=left;verticalAlign=middle;spacingLeft=4;spacingRight=4;overflow=hidden;points=[[0,0.5],[1,0.5]];portConstraint=eastwest;rotatable=0;whiteSpace=wrap;html=1;" vertex="1" parent="-eYlrrSqcaiwDsKNxF3H-1">
          <mxGeometry y="180" width="168" height="30" as="geometry" />
        </mxCell>
        <mxCell id="-eYlrrSqcaiwDsKNxF3H-5" value="- workHours: List&amp;lt;String&amp;gt;" style="text;strokeColor=none;fillColor=none;align=left;verticalAlign=middle;spacingLeft=4;spacingRight=4;overflow=hidden;points=[[0,0.5],[1,0.5]];portConstraint=eastwest;rotatable=0;whiteSpace=wrap;html=1;" vertex="1" parent="-eYlrrSqcaiwDsKNxF3H-1">
          <mxGeometry y="210" width="168" height="30" as="geometry" />
        </mxCell>
        <mxCell id="-eYlrrSqcaiwDsKNxF3H-34" value="BookingSlot" style="swimlane;fontStyle=0;childLayout=stackLayout;horizontal=1;startSize=30;horizontalStack=0;resizeParent=1;resizeParentMax=0;resizeLast=0;collapsible=1;marginBottom=0;whiteSpace=wrap;html=1;" vertex="1" parent="1">
          <mxGeometry x="-249" y="166" width="168" height="120" as="geometry" />
        </mxCell>
        <mxCell id="-eYlrrSqcaiwDsKNxF3H-35" value="- ID: string" style="text;strokeColor=none;fillColor=none;align=left;verticalAlign=middle;spacingLeft=4;spacingRight=4;overflow=hidden;points=[[0,0.5],[1,0.5]];portConstraint=eastwest;rotatable=0;whiteSpace=wrap;html=1;" vertex="1" parent="-eYlrrSqcaiwDsKNxF3H-34">
          <mxGeometry y="30" width="168" height="30" as="geometry" />
        </mxCell>
        <mxCell id="-eYlrrSqcaiwDsKNxF3H-36" value="- date: Date" style="text;strokeColor=none;fillColor=none;align=left;verticalAlign=middle;spacingLeft=4;spacingRight=4;overflow=hidden;points=[[0,0.5],[1,0.5]];portConstraint=eastwest;rotatable=0;whiteSpace=wrap;html=1;" vertex="1" parent="-eYlrrSqcaiwDsKNxF3H-34">
          <mxGeometry y="60" width="168" height="30" as="geometry" />
        </mxCell>
        <mxCell id="-eYlrrSqcaiwDsKNxF3H-37" value="- availableSeats: int" style="text;strokeColor=none;fillColor=none;align=left;verticalAlign=middle;spacingLeft=4;spacingRight=4;overflow=hidden;points=[[0,0.5],[1,0.5]];portConstraint=eastwest;rotatable=0;whiteSpace=wrap;html=1;" vertex="1" parent="-eYlrrSqcaiwDsKNxF3H-34">
          <mxGeometry y="90" width="168" height="30" as="geometry" />
        </mxCell>
        <mxCell id="-eYlrrSqcaiwDsKNxF3H-38" value="Booking" style="swimlane;fontStyle=0;childLayout=stackLayout;horizontal=1;startSize=30;horizontalStack=0;resizeParent=1;resizeParentMax=0;resizeLast=0;collapsible=1;marginBottom=0;whiteSpace=wrap;html=1;" vertex="1" parent="1">
          <mxGeometry x="96" y="180" width="168" height="90" as="geometry" />
        </mxCell>
        <mxCell id="-eYlrrSqcaiwDsKNxF3H-39" value="- ID: string" style="text;strokeColor=none;fillColor=none;align=left;verticalAlign=middle;spacingLeft=4;spacingRight=4;overflow=hidden;points=[[0,0.5],[1,0.5]];portConstraint=eastwest;rotatable=0;whiteSpace=wrap;html=1;" vertex="1" parent="-eYlrrSqcaiwDsKNxF3H-38">
          <mxGeometry y="30" width="168" height="30" as="geometry" />
        </mxCell>
        <mxCell id="-eYlrrSqcaiwDsKNxF3H-41" value="- numSeats: int" style="text;strokeColor=none;fillColor=none;align=left;verticalAlign=middle;spacingLeft=4;spacingRight=4;overflow=hidden;points=[[0,0.5],[1,0.5]];portConstraint=eastwest;rotatable=0;whiteSpace=wrap;html=1;" vertex="1" parent="-eYlrrSqcaiwDsKNxF3H-38">
          <mxGeometry y="60" width="168" height="30" as="geometry" />
        </mxCell>
        <mxCell id="-eYlrrSqcaiwDsKNxF3H-42" value="" style="endArrow=none;html=1;rounded=0;fontSize=12;startSize=8;endSize=8;curved=1;" edge="1" parent="1" source="-eYlrrSqcaiwDsKNxF3H-45" target="-eYlrrSqcaiwDsKNxF3H-1">
          <mxGeometry width="50" height="50" relative="1" as="geometry">
            <mxPoint x="-136" y="189" as="sourcePoint" />
            <mxPoint x="-86" y="139" as="targetPoint" />
          </mxGeometry>
        </mxCell>
        <mxCell id="-eYlrrSqcaiwDsKNxF3H-43" value="" style="endArrow=none;html=1;rounded=0;fontSize=12;startSize=8;endSize=8;curved=1;" edge="1" parent="1" source="-eYlrrSqcaiwDsKNxF3H-49" target="-eYlrrSqcaiwDsKNxF3H-38">
          <mxGeometry width="50" height="50" relative="1" as="geometry">
            <mxPoint x="-155" y="176" as="sourcePoint" />
            <mxPoint x="-155" y="88" as="targetPoint" />
          </mxGeometry>
        </mxCell>
        <mxCell id="-eYlrrSqcaiwDsKNxF3H-46" value="" style="endArrow=none;html=1;rounded=0;fontSize=12;startSize=8;endSize=8;curved=1;" edge="1" parent="1" source="-eYlrrSqcaiwDsKNxF3H-47" target="-eYlrrSqcaiwDsKNxF3H-45">
          <mxGeometry width="50" height="50" relative="1" as="geometry">
            <mxPoint x="-165" y="166" as="sourcePoint" />
            <mxPoint x="-165" y="78" as="targetPoint" />
          </mxGeometry>
        </mxCell>
        <mxCell id="-eYlrrSqcaiwDsKNxF3H-45" value="1" style="text;html=1;align=center;verticalAlign=middle;whiteSpace=wrap;rounded=0;" vertex="1" parent="1">
          <mxGeometry x="-175" y="84" width="18" height="20" as="geometry" />
        </mxCell>
        <mxCell id="-eYlrrSqcaiwDsKNxF3H-48" value="" style="endArrow=none;html=1;rounded=0;fontSize=12;startSize=8;endSize=8;curved=1;" edge="1" parent="1" source="-eYlrrSqcaiwDsKNxF3H-34" target="-eYlrrSqcaiwDsKNxF3H-47">
          <mxGeometry width="50" height="50" relative="1" as="geometry">
            <mxPoint x="-165" y="166" as="sourcePoint" />
            <mxPoint x="-165" y="104" as="targetPoint" />
          </mxGeometry>
        </mxCell>
        <mxCell id="-eYlrrSqcaiwDsKNxF3H-47" value="*" style="text;html=1;align=center;verticalAlign=middle;whiteSpace=wrap;rounded=0;" vertex="1" parent="1">
          <mxGeometry x="-175" y="142" width="18" height="20" as="geometry" />
        </mxCell>
        <mxCell id="-eYlrrSqcaiwDsKNxF3H-50" value="" style="endArrow=none;html=1;rounded=0;fontSize=12;startSize=8;endSize=8;curved=1;" edge="1" parent="1" source="-eYlrrSqcaiwDsKNxF3H-51" target="-eYlrrSqcaiwDsKNxF3H-49">
          <mxGeometry width="50" height="50" relative="1" as="geometry">
            <mxPoint x="-81" y="226" as="sourcePoint" />
            <mxPoint x="96" y="226" as="targetPoint" />
          </mxGeometry>
        </mxCell>
        <mxCell id="-eYlrrSqcaiwDsKNxF3H-49" value="*" style="text;html=1;align=center;verticalAlign=middle;whiteSpace=wrap;rounded=0;" vertex="1" parent="1">
          <mxGeometry x="64" y="216" width="18" height="20" as="geometry" />
        </mxCell>
        <mxCell id="-eYlrrSqcaiwDsKNxF3H-52" value="" style="endArrow=none;html=1;rounded=0;fontSize=12;startSize=8;endSize=8;curved=1;" edge="1" parent="1" source="-eYlrrSqcaiwDsKNxF3H-34" target="-eYlrrSqcaiwDsKNxF3H-51">
          <mxGeometry width="50" height="50" relative="1" as="geometry">
            <mxPoint x="-81" y="226" as="sourcePoint" />
            <mxPoint x="64" y="226" as="targetPoint" />
          </mxGeometry>
        </mxCell>
        <mxCell id="-eYlrrSqcaiwDsKNxF3H-51" value="1" style="text;html=1;align=center;verticalAlign=middle;whiteSpace=wrap;rounded=0;" vertex="1" parent="1">
          <mxGeometry x="-65" y="216" width="18" height="20" as="geometry" />
        </mxCell>
        <mxCell id="-eYlrrSqcaiwDsKNxF3H-53" value="Client" style="swimlane;fontStyle=0;childLayout=stackLayout;horizontal=1;startSize=30;horizontalStack=0;resizeParent=1;resizeParentMax=0;resizeLast=0;collapsible=1;marginBottom=0;whiteSpace=wrap;html=1;" vertex="1" parent="1">
          <mxGeometry x="96" y="-78" width="168" height="120" as="geometry" />
        </mxCell>
        <mxCell id="-eYlrrSqcaiwDsKNxF3H-54" value="- ID: string" style="text;strokeColor=none;fillColor=none;align=left;verticalAlign=middle;spacingLeft=4;spacingRight=4;overflow=hidden;points=[[0,0.5],[1,0.5]];portConstraint=eastwest;rotatable=0;whiteSpace=wrap;html=1;" vertex="1" parent="-eYlrrSqcaiwDsKNxF3H-53">
          <mxGeometry y="30" width="168" height="30" as="geometry" />
        </mxCell>
        <mxCell id="-eYlrrSqcaiwDsKNxF3H-55" value="- name: String" style="text;strokeColor=none;fillColor=none;align=left;verticalAlign=middle;spacingLeft=4;spacingRight=4;overflow=hidden;points=[[0,0.5],[1,0.5]];portConstraint=eastwest;rotatable=0;whiteSpace=wrap;html=1;" vertex="1" parent="-eYlrrSqcaiwDsKNxF3H-53">
          <mxGeometry y="60" width="168" height="30" as="geometry" />
        </mxCell>
        <mxCell id="-eYlrrSqcaiwDsKNxF3H-56" value="- email: string" style="text;strokeColor=none;fillColor=none;align=left;verticalAlign=middle;spacingLeft=4;spacingRight=4;overflow=hidden;points=[[0,0.5],[1,0.5]];portConstraint=eastwest;rotatable=0;whiteSpace=wrap;html=1;" vertex="1" parent="-eYlrrSqcaiwDsKNxF3H-53">
          <mxGeometry y="90" width="168" height="30" as="geometry" />
        </mxCell>
        <mxCell id="-eYlrrSqcaiwDsKNxF3H-57" value="" style="endArrow=none;html=1;rounded=0;fontSize=12;startSize=8;endSize=8;curved=1;" edge="1" parent="1" source="-eYlrrSqcaiwDsKNxF3H-58" target="-eYlrrSqcaiwDsKNxF3H-38">
          <mxGeometry width="50" height="50" relative="1" as="geometry">
            <mxPoint x="-37" y="236" as="sourcePoint" />
            <mxPoint x="74" y="236" as="targetPoint" />
          </mxGeometry>
        </mxCell>
        <mxCell id="-eYlrrSqcaiwDsKNxF3H-59" value="" style="endArrow=none;html=1;rounded=0;fontSize=12;startSize=8;endSize=8;curved=1;" edge="1" parent="1" source="-eYlrrSqcaiwDsKNxF3H-60" target="-eYlrrSqcaiwDsKNxF3H-58">
          <mxGeometry width="50" height="50" relative="1" as="geometry">
            <mxPoint x="180" y="42" as="sourcePoint" />
            <mxPoint x="180" y="180" as="targetPoint" />
          </mxGeometry>
        </mxCell>
        <mxCell id="-eYlrrSqcaiwDsKNxF3H-58" value="*" style="text;html=1;align=center;verticalAlign=middle;whiteSpace=wrap;rounded=0;" vertex="1" parent="1">
          <mxGeometry x="171" y="152" width="18" height="20" as="geometry" />
        </mxCell>
        <mxCell id="-eYlrrSqcaiwDsKNxF3H-61" value="" style="endArrow=none;html=1;rounded=0;fontSize=12;startSize=8;endSize=8;curved=1;" edge="1" parent="1" source="-eYlrrSqcaiwDsKNxF3H-53" target="-eYlrrSqcaiwDsKNxF3H-60">
          <mxGeometry width="50" height="50" relative="1" as="geometry">
            <mxPoint x="180" y="42" as="sourcePoint" />
            <mxPoint x="180" y="152" as="targetPoint" />
          </mxGeometry>
        </mxCell>
        <mxCell id="-eYlrrSqcaiwDsKNxF3H-60" value="1" style="text;html=1;align=center;verticalAlign=middle;whiteSpace=wrap;rounded=0;" vertex="1" parent="1">
          <mxGeometry x="171" y="53" width="18" height="20" as="geometry" />
        </mxCell>
      </root>
    </mxGraphModel>
  </diagram>
</mxfile>
